<svg width="343" height="125" viewBox="0 0 343 125" fill="none" xmlns="http://www.w3.org/2000/svg">
<path d="M121.744 48.896C119.995 48.896 118.309 48.6827 116.688 48.256C115.067 47.872 113.616 47.4027 112.336 46.848C111.099 46.2933 110.117 45.824 109.392 45.44C108.667 45.0133 108.304 44.8 108.304 44.8C108.304 44.8 108.389 44.5867 108.56 44.16C108.773 43.6907 109.008 43.1787 109.264 42.624C109.52 42.0267 109.733 41.5147 109.904 41.088C110.117 40.6613 110.224 40.448 110.224 40.448C110.224 40.448 110.565 40.64 111.248 41.024C111.973 41.3653 112.933 41.7707 114.128 42.24C115.323 42.6667 116.688 43.072 118.224 43.456C119.76 43.7973 121.36 43.968 123.024 43.968C124.091 43.968 124.923 43.8827 125.52 43.712C126.16 43.4987 126.608 43.3067 126.864 43.136C127.717 42.5387 128.379 41.728 128.848 40.704C129.317 39.6373 129.552 38.272 129.552 36.608C129.552 34.9867 129.211 33.6427 128.528 32.576C127.845 31.5093 126.928 30.6133 125.776 29.888C124.667 29.1627 123.451 28.5227 122.128 27.968C120.421 27.2427 118.821 26.5173 117.328 25.792C115.835 25.0667 114.512 24.2347 113.36 23.296C112.208 22.3573 111.312 21.184 110.672 19.776C110.032 18.3253 109.712 16.5333 109.712 14.4C109.712 12.1813 110.203 10.1973 111.184 8.448C112.165 6.656 113.637 5.248 115.6 4.224C117.563 3.15733 119.995 2.624 122.896 2.624C124.773 2.624 126.501 2.752 128.08 3.008C129.659 3.22133 130.917 3.456 131.856 3.712C132.837 3.92533 133.328 4.032 133.328 4.032L132.432 8.64C132.432 8.64 131.899 8.55467 130.832 8.384C129.808 8.17067 128.485 7.97867 126.864 7.808C125.243 7.59467 123.536 7.488 121.744 7.488C120.677 7.488 119.824 7.552 119.184 7.68C118.587 7.808 118.053 8.02133 117.584 8.32C117.029 8.61867 116.496 9.23733 115.984 10.176C115.515 11.072 115.28 12.3093 115.28 13.888C115.28 15.6373 115.728 17.0667 116.624 18.176C117.52 19.2853 118.693 20.2027 120.144 20.928C121.595 21.6107 123.131 22.2933 124.752 22.976C126.459 23.6587 128.101 24.4907 129.68 25.472C131.259 26.4107 132.56 27.6907 133.584 29.312C134.608 30.9333 135.12 33.1307 135.12 35.904C135.12 38.5067 134.544 40.7893 133.392 42.752C132.283 44.672 130.725 46.1867 128.72 47.296C126.715 48.3627 124.389 48.896 121.744 48.896ZM151.168 48L151.296 8.064L138.816 8.256V3.52H168.896V8.256L156.416 8.064L156.544 48H151.168ZM175.72 48L176.04 26.944L175.848 3.52C176.488 3.43466 177.619 3.328 179.24 3.2C180.861 3.072 182.653 2.96533 184.616 2.88C186.579 2.752 188.371 2.688 189.992 2.688C192.893 2.688 195.411 3.136 197.544 4.032C199.677 4.928 201.32 6.4 202.472 8.448C203.624 10.4533 204.2 13.1413 204.2 16.512C204.2 20.224 203.389 23.168 201.768 25.344C200.147 27.52 197.8 28.9707 194.728 29.696V29.888L204.776 48H198.44L189.48 30.336L181.16 30.016V48H175.72ZM190.632 25.856C193.789 25.856 195.88 25.1093 196.904 23.616C197.971 22.08 198.504 19.6907 198.504 16.448C198.504 13.8027 198.269 11.7973 197.8 10.432C197.373 9.024 196.776 8.10667 196.008 7.68C195.539 7.38133 194.813 7.168 193.832 7.04C192.893 6.86933 191.869 6.784 190.76 6.784C189.011 6.784 187.219 6.86933 185.384 7.04C183.592 7.21066 182.205 7.36 181.224 7.488L181.096 25.216C182.589 25.3867 184.168 25.536 185.832 25.664C187.539 25.792 189.139 25.856 190.632 25.856ZM216.345 48V3.52H238.169V8.256L221.721 8.064L221.401 23.104H236.633V27.648H221.401L221.721 43.392L238.169 43.264V48H216.345ZM242.82 48L254.916 3.52H262.468L274.564 48H269.06L266.052 36.224H251.332L248.324 48H242.82ZM252.484 31.488H264.9L258.948 8.256H258.436L252.484 31.488ZM281.275 48L282.811 3.52H290.619L300.667 32.512H301.115L311.227 3.52H319.035L320.571 48H315.195L314.683 8.896H314.235L304.187 37.568H297.595L287.611 8.896H287.163L286.651 48H281.275ZM134.08 119.26C129.82 119.26 126.07 118.24 122.83 116.2C119.59 114.1 117.04 110.71 115.18 106.03C113.38 101.35 112.48 95.14 112.48 87.4C112.48 80.56 113.05 74.98 114.19 70.66C115.39 66.28 117.01 62.89 119.05 60.49C121.15 58.09 123.61 56.44 126.43 55.54C129.25 54.64 132.31 54.19 135.61 54.19C137.05 54.19 138.76 54.28 140.74 54.46C142.72 54.58 144.64 54.76 146.5 55C148.36 55.18 149.77 55.39 150.73 55.63L149.83 62.11C149.29 62.05 148.42 61.96 147.22 61.84C146.02 61.72 144.7 61.6 143.26 61.48C141.82 61.36 140.44 61.27 139.12 61.21C137.8 61.09 136.78 61.03 136.06 61.03C133.12 61.03 130.75 61.18 128.95 61.48C127.21 61.78 125.92 62.44 125.08 63.46C124.3 64.42 123.55 65.83 122.83 67.69C122.11 69.55 121.54 72.1 121.12 75.34C120.7 78.52 120.49 82.63 120.49 87.67C120.49 94.03 121.09 99.13 122.29 102.97C123.55 106.75 124.78 109.24 125.98 110.44C126.82 111.28 127.84 111.88 129.04 112.24C130.24 112.54 131.59 112.69 133.09 112.69C135.37 112.69 137.56 112.45 139.66 111.97C141.82 111.49 143.71 110.92 145.33 110.26C147.01 109.6 148.33 109.03 149.29 108.55C150.25 108.07 150.73 107.83 150.73 107.83L153.34 113.77C153.34 113.77 152.86 114.04 151.9 114.58C151 115.12 149.71 115.78 148.03 116.56C146.35 117.28 144.31 117.91 141.91 118.45C139.57 118.99 136.96 119.26 134.08 119.26ZM167.921 118V55.45H175.481L175.031 111.52L197.621 111.34V118H167.921ZM208.087 118.09L208.357 89.38L208.087 55.45H215.737L215.377 83.08L215.737 118L208.087 118.09ZM234.63 118L234.99 89.02L234.63 55.45C234.63 55.45 235.23 55.39 236.43 55.27C237.69 55.15 239.34 55 241.38 54.82C243.42 54.64 245.64 54.49 248.04 54.37C250.5 54.25 252.93 54.19 255.33 54.19C260.67 54.19 264.81 55.96 267.75 59.5C270.69 62.98 272.16 68.23 272.16 75.25C272.16 79.63 271.62 83.26 270.54 86.14C269.52 89.02 268.11 91.27 266.31 92.89C264.51 94.45 262.5 95.56 260.28 96.22C258.06 96.88 255.78 97.21 253.44 97.21C251.58 97.21 249.51 97.15 247.23 97.03C244.95 96.85 243.27 96.73 242.19 96.67V118H234.63ZM253.98 90.82C255.9 90.82 257.46 90.73 258.66 90.55C259.86 90.31 260.82 89.83 261.54 89.11C262.56 88.09 263.25 86.35 263.61 83.89C263.97 81.37 264.15 78.19 264.15 74.35C264.15 71.11 263.97 68.62 263.61 66.88C263.31 65.08 262.92 63.79 262.44 63.01C262.02 62.23 261.57 61.69 261.09 61.39C259.71 60.43 257.19 59.95 253.53 59.95C251.19 59.95 248.97 60.07 246.87 60.31C244.83 60.49 243.27 60.7 242.19 60.94V89.74C243.03 89.86 244.59 90.07 246.87 90.37C249.21 90.67 251.58 90.82 253.98 90.82ZM299.615 119.26C297.155 119.26 294.785 118.96 292.505 118.36C290.225 117.82 288.185 117.16 286.385 116.38C284.645 115.6 283.265 114.94 282.245 114.4C281.225 113.8 280.715 113.5 280.715 113.5C280.715 113.5 280.835 113.2 281.075 112.6C281.375 111.94 281.705 111.22 282.065 110.44C282.425 109.6 282.725 108.88 282.965 108.28C283.265 107.68 283.415 107.38 283.415 107.38C283.415 107.38 283.895 107.65 284.855 108.19C285.875 108.67 287.225 109.24 288.905 109.9C290.585 110.5 292.505 111.07 294.665 111.61C296.825 112.09 299.075 112.33 301.415 112.33C302.915 112.33 304.085 112.21 304.925 111.97C305.825 111.67 306.455 111.4 306.815 111.16C308.015 110.32 308.945 109.18 309.605 107.74C310.265 106.24 310.595 104.32 310.595 101.98C310.595 99.7 310.115 97.81 309.155 96.31C308.195 94.81 306.905 93.55 305.285 92.53C303.725 91.51 302.015 90.61 300.155 89.83C297.755 88.81 295.505 87.79 293.405 86.77C291.305 85.75 289.445 84.58 287.825 83.26C286.205 81.94 284.945 80.29 284.045 78.31C283.145 76.27 282.695 73.75 282.695 70.75C282.695 67.63 283.385 64.84 284.765 62.38C286.145 59.86 288.215 57.88 290.975 56.44C293.735 54.94 297.155 54.19 301.235 54.19C303.875 54.19 306.305 54.37 308.525 54.73C310.745 55.03 312.515 55.36 313.835 55.72C315.215 56.02 315.905 56.17 315.905 56.17L314.645 62.65C314.645 62.65 313.895 62.53 312.395 62.29C310.955 61.99 309.095 61.72 306.815 61.48C304.535 61.18 302.135 61.03 299.615 61.03C298.115 61.03 296.915 61.12 296.015 61.3C295.175 61.48 294.425 61.78 293.765 62.2C292.985 62.62 292.235 63.49 291.515 64.81C290.855 66.07 290.525 67.81 290.525 70.03C290.525 72.49 291.155 74.5 292.415 76.06C293.675 77.62 295.325 78.91 297.365 79.93C299.405 80.89 301.565 81.85 303.845 82.81C306.245 83.77 308.555 84.94 310.775 86.32C312.995 87.64 314.825 89.44 316.265 91.72C317.705 94 318.425 97.09 318.425 100.99C318.425 104.65 317.615 107.86 315.995 110.62C314.435 113.32 312.245 115.45 309.425 117.01C306.605 118.51 303.335 119.26 299.615 119.26Z" fill="#8666EB"/>
<rect width="100" height="118" fill="#8666EB"/>
<path d="M48.06 98.94C45.0533 98.94 42.1567 98.5733 39.37 97.84C36.5833 97.18 34.09 96.3733 31.89 95.42C29.7633 94.4667 28.0767 93.66 26.83 93C25.5833 92.2667 24.96 91.9 24.96 91.9C24.96 91.9 25.1067 91.5333 25.4 90.8C25.7667 89.9933 26.17 89.1133 26.61 88.16C27.05 87.1333 27.4167 86.2533 27.71 85.52C28.0767 84.7867 28.26 84.42 28.26 84.42C28.26 84.42 28.8467 84.75 30.02 85.41C31.2667 85.9967 32.9167 86.6933 34.97 87.5C37.0233 88.2333 39.37 88.93 42.01 89.59C44.65 90.1767 47.4 90.47 50.26 90.47C52.0933 90.47 53.5233 90.3233 54.55 90.03C55.65 89.6633 56.42 89.3333 56.86 89.04C58.3267 88.0133 59.4633 86.62 60.27 84.86C61.0767 83.0267 61.48 80.68 61.48 77.82C61.48 75.0333 60.8933 72.7233 59.72 70.89C58.5467 69.0567 56.97 67.5167 54.99 66.27C53.0833 65.0233 50.9933 63.9233 48.72 62.97C45.7867 61.7233 43.0367 60.4767 40.47 59.23C37.9033 57.9833 35.63 56.5533 33.65 54.94C31.67 53.3267 30.13 51.31 29.03 48.89C27.93 46.3967 27.38 43.3167 27.38 39.65C27.38 35.8367 28.2233 32.4267 29.91 29.42C31.5967 26.34 34.1267 23.92 37.5 22.16C40.8733 20.3267 45.0533 19.41 50.04 19.41C53.2667 19.41 56.2367 19.63 58.95 20.07C61.6633 20.4367 63.8267 20.84 65.44 21.28C67.1267 21.6467 67.97 21.83 67.97 21.83L66.43 29.75C66.43 29.75 65.5133 29.6033 63.68 29.31C61.92 28.9433 59.6467 28.6133 56.86 28.32C54.0733 27.9533 51.14 27.77 48.06 27.77C46.2267 27.77 44.76 27.88 43.66 28.1C42.6333 28.32 41.7167 28.6867 40.91 29.2C39.9567 29.7133 39.04 30.7767 38.16 32.39C37.3533 33.93 36.95 36.0567 36.95 38.77C36.95 41.7767 37.72 44.2333 39.26 46.14C40.8 48.0467 42.8167 49.6233 45.31 50.87C47.8033 52.0433 50.4433 53.2167 53.23 54.39C56.1633 55.5633 58.9867 56.9933 61.7 58.68C64.4133 60.2933 66.65 62.4933 68.41 65.28C70.17 68.0667 71.05 71.8433 71.05 76.61C71.05 81.0833 70.06 85.0067 68.08 88.38C66.1733 91.68 63.4967 94.2833 60.05 96.19C56.6033 98.0233 52.6067 98.94 48.06 98.94Z" fill="#FEF9F9"/>
</svg>
